<svg xmlns="http://www.w3.org/2000/svg" width="20" height="20" viewBox="0 0 20 20"><title>window-code-2</title><g fill="#000000"><path d="m14,3H6c-1.657,0-3,1.343-3,3v2h14v-2c0-1.657-1.343-3-3-3Zm-8,3c-.552,0-1-.448-1-1s.448-1,1-1,1,.448,1,1-.448,1-1,1Zm3,0c-.552,0-1-.448-1-1s.448-1,1-1,1,.448,1,1-.448,1-1,1Z" stroke-width="0" fill="#000000"></path><polyline points="12.5 12 10 14.5 12.5 17" fill="none" stroke="#000000" stroke-linecap="round" stroke-linejoin="round" stroke-width="2"></polyline><path d="m17,8.845v-2.845c0-1.657-1.343-3-3-3H6c-1.657,0-3,1.343-3,3v8c0,1.657,1.343,3,3,3h1.55l-.025-.025" fill="none" stroke="#000000" stroke-linecap="round" stroke-linejoin="round" stroke-width="2"></path><polyline points="15.5 17 18 14.5 15.5 12" fill="none" stroke="#000000" stroke-linecap="round" stroke-linejoin="round" stroke-width="2"></polyline></g></svg>
